<svg id="Capa_1" enable-background="new 0 0 512 512" height="512" viewBox="0 0 512 512" width="512" xmlns="http://www.w3.org/2000/svg" xmlns:xlink="http://www.w3.org/1999/xlink"><linearGradient id="SVGID_1_" gradientUnits="userSpaceOnUse" x1="263.5" x2="263.5" y1="330" y2="0"><stop offset="0" stop-color="#fd3a84"/><stop offset="1" stop-color="#ffa68d"/></linearGradient><linearGradient id="SVGID_2_" gradientUnits="userSpaceOnUse" x1="76" x2="76" y1="512" y2="0"><stop offset="0" stop-color="#ffc2cc"/><stop offset="1" stop-color="#fff2f4"/></linearGradient><g><path d="m444.401 32.399c-2.102-1.2-49.501-32.399-98.401-32.399s-96.299 31.199-98.401 32.399c-.3.3-41.697 27.601-81.599 27.601s-81.299-27.301-81.599-27.601c-2.703-1.5-5.402-2.399-8.401-2.399v272.699c15.601 8.701 52.5 27.301 90 27.301 48.9 0 96.299-31.201 98.401-32.401.3-.3 41.697-27.599 81.599-27.599s81.299 27.299 81.599 27.599c4.801 2.999 10.503 3.3 15.601.601 4.801-2.701 7.8-7.8 7.8-13.2v-240c0-5.101-2.402-9.6-6.599-12.601z" fill="url(#SVGID_1_)"/><path d="m76 512c-8.291 0-15-6.709-15-15v-482c0-8.291 6.709-15 15-15s15 6.709 15 15v482c0 8.291-6.709 15-15 15z" fill="url(#SVGID_2_)"/></g></svg>