<svg xmlns="http://www.w3.org/2000/svg" width="512" height="512" viewBox="0 -53 384 384"><g><path fill="#FFF" d="m368 154.667969h-352c-8.832031 0-16-7.167969-16-16s7.167969-16 16-16h352c8.832031 0 16 7.167969 16 16s-7.167969 16-16 16zm0 0" class="active-path" data-old_color="#000000" data-original="#000000"/><path fill="#FFF" d="m368 32h-352c-8.832031 0-16-7.167969-16-16s7.167969-16 16-16h352c8.832031 0 16 7.167969 16 16s-7.167969 16-16 16zm0 0" class="active-path" data-old_color="#000000" data-original="#000000"/><path fill="#FFF" d="m368 277.332031h-352c-8.832031 0-16-7.167969-16-16s7.167969-16 16-16h352c8.832031 0 16 7.167969 16 16s-7.167969 16-16 16zm0 0" class="active-path" data-old_color="#000000" data-original="#000000"/></g></svg>